# Blender v2.92.0 OBJ File: ''
# www.blender.org
mtllib Primo.mtl
o Primo_Cone
v 10.000000 0.000000 0.000000
v -10.000000 0.000000 0.000000
v 0.000000 8.000000 8.000000
v 0.000000 8.000000 -8.000000
v 0.000000 -8.000000 8.000000
v 0.000000 -8.000000 -8.000000
v 0.000000 25.000000 0.000000
v 0.000000 0.000000 -25.000000
v 0.000000 0.000000 25.000000
v 0.000000 -25.000000 0.000000
vt 0.000000 0.000000
vt 0.000000 0.000000
vt 0.000000 0.000000
vt 0.000000 0.000000
vt 0.000000 0.000000
vt 0.000000 0.000000
vt 0.000000 0.000000
vt 0.000000 0.000000
vt 0.000000 0.000000
vt 0.000000 0.000000
vn 0.7288 -0.2915 0.6195
vn 0.7288 -0.2915 -0.6195
vn -0.7288 -0.2915 -0.6195
vn -0.7288 -0.2915 0.6195
vn 0.7288 -0.6195 0.2915
vn -0.7288 -0.6195 -0.2915
vn 0.7288 -0.6195 -0.2915
vn -0.7288 -0.6195 0.2915
usemtl None
s off
f 4/1/1 7/2/1 2/3/1
f 7/2/2 3/4/2 2/3/2
f 6/5/3 10/6/3 2/3/3
f 10/6/4 5/7/4 2/3/4
f 2/3/5 8/8/5 4/1/5
f 6/5/6 2/3/6 8/8/6
f 9/9/7 2/3/7 3/4/7
f 5/7/8 9/9/8 2/3/8
f 7/2/4 4/1/4 1/10/4
f 7/2/3 1/10/3 3/4/3
f 3/4/6 1/10/6 9/9/6
f 9/9/5 5/7/5 1/10/5
f 10/6/1 1/10/1 5/7/1
f 10/6/2 6/5/2 1/10/2
f 8/8/7 1/10/7 6/5/7
f 4/1/8 8/8/8 1/10/8
